HIERARCHY
ROOT Hips
{
	OFFSET -0.179506 -22.333345 2.821913
	CHANNELS 6 Xposition Yposition Zposition Zrotation Yrotation Xrotation 
	JOINT LeftUpLeg
	{
		OFFSET 6.951974 -9.140623 -0.681533
		CHANNELS 3 Zrotation Yrotation Xrotation
		JOINT LeftLeg
		{
			OFFSET 3.427654 -37.519855 -0.449580
			CHANNELS 3 Zrotation Yrotation Xrotation
			JOINT LeftFoot
			{
				OFFSET -1.359570 -39.796059 -4.369333
				CHANNELS 3 Zrotation Yrotation Xrotation
				JOINT LeftToe
				{
					OFFSET 2.635814 -5.579078 11.928840
					CHANNELS 3 Zrotation Yrotation Xrotation
					End Site
					{
						OFFSET 0.000000 0.000000 0.000000
					}
				}
			}
		}
	}
	JOINT RightUpLeg
	{
		OFFSET -6.767048 -9.052170 -0.431982
		CHANNELS 3 Zrotation Yrotation Xrotation
		JOINT RightLeg
		{
			OFFSET -3.829005 -38.256897 -0.885003
			CHANNELS 3 Zrotation Yrotation Xrotation
			JOINT RightFoot
			{
				OFFSET 1.577377 -39.841461 -4.231180
				CHANNELS 3 Zrotation Yrotation Xrotation
				JOINT RightToe
				{
					OFFSET -2.537174 -4.814398 12.334795
					CHANNELS 3 Zrotation Yrotation Xrotation
					End Site
					{
						OFFSET 0.000000 0.000000 0.000000
					}
				}
			}
		}
	}
	JOINT Spine
	{
		OFFSET -0.253288 10.896323 -2.669631
		CHANNELS 3 Zrotation Yrotation Xrotation
		JOINT Spine1
		{
			OFFSET 0.548704 13.518043 0.109247
			CHANNELS 3 Zrotation Yrotation Xrotation
			JOINT Spine2
			{
				OFFSET 0.145701 5.292222 2.542457
				CHANNELS 3 Zrotation Yrotation Xrotation
				JOINT Neck
				{
					OFFSET -0.277840 21.387037 -4.285703
					CHANNELS 3 Zrotation Yrotation Xrotation
					JOINT Head
					{
						OFFSET 0.515184 6.496960 5.134897
						CHANNELS 3 Zrotation Yrotation Xrotation
						End Site
						{
							OFFSET 0.000000 0.000000 0.000000
						}
					}
				}
				JOINT LeftShoulder
				{
					OFFSET 7.884473 12.174932 -3.408961
					CHANNELS 3 Zrotation Yrotation Xrotation
					JOINT LeftArm
					{
						OFFSET 9.097692 3.046888 -0.886815
						CHANNELS 3 Zrotation Yrotation Xrotation
						JOINT LeftForeArm
						{
							OFFSET 25.961220 -1.277207 -2.745643
							CHANNELS 3 Zrotation Yrotation Xrotation
							JOINT LeftHand
							{
								OFFSET 24.923361 0.898606 -0.117091
								CHANNELS 3 Zrotation Yrotation Xrotation
								End Site
								{
									OFFSET 0.000000 0.000000 0.000000
								}
							}
						}
					}
				}
				JOINT RightShoulder
				{
					OFFSET -8.175920 11.883285 -3.861528
					CHANNELS 3 Zrotation Yrotation Xrotation
					JOINT RightArm
					{
						OFFSET -9.601238 3.255117 -0.914307
						CHANNELS 3 Zrotation Yrotation Xrotation
						JOINT RightForeArm
						{
							OFFSET -25.374195 -1.332924 -2.140099
							CHANNELS 3 Zrotation Yrotation Xrotation
							JOINT RightHand
							{
								OFFSET -25.529810 0.777228 -0.555919
								CHANNELS 3 Zrotation Yrotation Xrotation
								End Site
								{
									OFFSET 0.000000 0.000000 0.000000
								}
							}
						}
					}
				}
			}
		}
	}
}
MOTION
Frames: 17
Frame Time: 0.033333
4.592190 3.840897 91.073586 -126.299899 0.110735 87.248261 -0.774550 3.440821 6.718566 -2.825100 -3.307621 -2.737091 3.442360 11.420410 -10.570106 nan nan nan -0.853227 -3.022790 2.904511 3.538489 0.751317 0.679531 2.008675 -5.917314 -7.270537 nan nan nan -0.538279 2.085877 4.455467 2.271966 -3.266632 7.046150 0.577506 -0.710347 -4.889925 1.154237 -3.300971 -4.246383 3.861302 -4.245589 5.850331 -32.679822 -5.108851 3.064162 -50.489167 -6.663589 16.022760 -0.234397 -21.829957 11.151272 -8.306024 -11.894572 8.046962 33.009764 8.786063 4.895074 49.348856 3.630337 15.699062 -8.272705 21.816617 -0.001917 7.165402 10.421403 4.232988 
4.577649 3.828038 91.072159 -126.248955 0.014426 87.267300 -0.883023 3.330283 6.643465 -2.861023 -3.306205 -2.648381 3.408546 11.474130 -10.535776 nan nan nan -0.996932 -2.970339 2.912237 3.570029 0.784948 0.641342 2.264330 -5.964110 -7.268944 nan nan nan -0.613046 2.072637 4.377684 2.230407 -3.280393 7.146417 0.565010 -0.741509 -4.872540 1.418875 -3.286351 -4.685687 3.879199 -4.230831 6.269810 -32.693326 -5.098249 3.170505 -50.366519 -6.709500 15.928597 -0.365184 -22.050471 11.285371 -8.022746 -11.891441 7.812747 33.094498 8.746726 5.010760 49.276956 3.769446 15.697439 -8.246602 21.870410 0.006392 6.934296 10.336407 4.253351 
4.575757 3.809119 91.065201 -126.245298 -0.040267 87.242271 -0.980832 3.314764 6.646399 -2.828422 -3.350170 -2.619769 3.539539 11.609507 -10.632396 nan nan nan -1.085307 -2.928565 2.923303 3.616785 0.879573 0.651493 2.396369 -6.039955 -7.362361 nan nan nan -0.628505 2.083997 4.434784 2.148478 -3.272615 7.152031 0.530978 -0.719791 -4.853534 1.623372 -3.497573 -4.928466 3.915220 -4.197341 6.586644 -32.604891 -5.158401 3.224985 -50.233415 -6.735519 16.167403 -0.562033 -22.267974 11.392722 -7.798134 -11.597915 7.025729 32.862017 8.705068 4.991161 49.699436 3.918162 15.614072 -8.472562 22.573066 -1.479270 7.102795 9.939437 1.791113 
4.549778 3.800175 91.049423 -126.306818 -0.067391 87.128575 -1.055363 3.504861 6.795844 -2.736333 -3.420799 -2.629983 3.622717 11.598958 -10.752968 nan nan nan -1.163816 -2.972451 3.011881 3.653429 0.826645 0.767356 2.422626 -5.786749 -7.482969 nan nan nan -0.547573 2.122704 4.478938 2.039700 -3.305918 7.408049 0.561892 -0.595481 -5.084426 -0.019027 -1.398545 -4.873194 2.594867 -2.402405 4.060323 -32.379659 -5.482918 2.943013 -50.582144 -6.310189 16.093885 -0.497093 -22.200134 11.297757 -8.110186 -11.457977 7.400889 32.713709 8.921468 5.188624 49.907492 3.739915 15.236413 -8.645665 22.755341 -1.798832 7.493255 9.939047 2.153470 
4.511133 3.792641 91.075455 -126.263944 -0.110322 87.299344 -1.152394 3.431383 6.703536 -2.742130 -3.467944 -2.649397 3.875416 11.650569 -10.911730 nan nan nan -1.259054 -2.881910 2.853542 3.748811 0.588770 0.847877 2.394150 -5.607011 -7.779600 nan nan nan -0.573125 1.992355 3.935141 1.843701 -3.364564 7.307546 0.429234 -0.549242 -5.460581 0.087954 -1.567220 -2.417094 3.073449 -2.174113 3.893744 -31.423177 -5.655419 3.389958 -51.937853 -6.165078 15.975034 0.423162 -21.441331 10.376197 -8.579789 -12.005517 7.115571 31.121457 9.297903 5.146666 52.119890 3.763617 15.082658 -8.263671 21.579051 -1.810504 7.536796 10.459352 2.134181 
4.458245 3.990282 91.027557 -124.882252 0.264800 87.945661 -0.479582 2.951919 5.606905 -3.088388 -4.036803 -1.905862 5.063075 11.331512 -11.430504 nan nan nan -0.675754 -3.643019 2.734124 3.817831 0.445222 0.088134 1.384665 -5.937779 -8.207461 nan nan nan -0.922778 1.778069 2.438260 2.382055 -4.424016 10.168498 0.746752 -0.633720 -8.622306 -0.184548 -2.473426 0.083593 3.296827 -1.862905 4.741057 -31.264822 -5.126416 3.709104 -52.929573 -5.847571 16.196570 1.352415 -21.121727 9.000820 -9.549154 -12.294853 7.543418 30.473604 9.155757 5.655120 53.034861 3.210815 14.902401 -8.836334 21.602731 -2.352175 8.700455 11.169948 3.071391 
4.437797 3.995215 91.037285 -124.851510 0.275538 87.948152 -0.454233 2.919420 5.602056 -3.131704 -3.984127 -1.867668 5.202162 11.310365 -11.452861 nan nan nan -0.643784 -3.678500 2.706794 3.818521 0.425848 0.100303 1.230698 -5.932481 -8.443851 nan nan nan -0.904316 1.767802 2.410010 2.331411 -4.434540 10.214744 0.758346 -0.658910 -8.678249 -0.091602 -2.416971 -0.000862 3.274448 -1.786072 4.950559 -31.135813 -5.060053 3.772119 -53.216234 -5.901572 16.017477 1.557093 -21.108536 8.649181 -9.468669 -12.417411 7.014649 30.280141 9.130978 5.671041 53.428427 3.310114 14.959115 -9.105002 21.553940 -2.359732 9.102392 11.245364 2.851900 
4.424862 3.998357 91.048920 -124.833444 0.303849 87.902026 -0.402612 2.951979 5.644309 -3.166873 -3.953929 -1.778051 5.018757 11.293175 -11.508171 nan nan nan -0.584457 -3.715202 2.727447 3.782488 0.454925 0.173330 1.144527 -5.939687 -8.461523 nan nan nan -0.851397 1.755880 2.513352 2.280918 -4.405465 10.053046 0.766385 -0.663985 -8.565359 -0.011065 -2.437735 -0.083648 3.167139 -1.737823 5.104123 -31.068172 -5.050998 3.827108 -53.410661 -5.948858 15.970061 1.606366 -21.071232 8.635363 -9.259080 -12.421232 6.650600 30.124037 9.064944 5.689593 53.703659 3.373019 14.960767 -9.258126 21.639860 -2.474758 9.222909 11.149203 2.340764 
4.406749 3.996096 91.066071 -124.785315 0.358662 87.868845 -0.322952 2.971093 5.679724 -3.208375 -3.923301 -1.735259 4.875710 11.237270 -11.555704 nan nan nan -0.546828 -3.763851 2.755642 3.802988 0.466606 0.233001 1.165012 -5.922592 -8.410787 nan nan nan -0.758954 1.737357 2.615683 2.253378 -4.400731 9.891192 0.777514 -0.674562 -8.491209 0.035622 -2.477463 -0.043861 3.013434 -1.708228 5.126754 -31.071010 -5.058531 3.901777 -53.546169 -5.970664 15.926202 1.658471 -21.042521 8.718408 -9.228961 -12.428198 6.494730 29.955530 9.044709 5.747896 53.974673 3.372870 14.966620 -9.436632 21.766850 -2.493744 9.275784 11.061769 1.979961 
4.399888 3.984790 91.074913 -124.764556 0.369136 87.896242 -0.319971 2.925196 5.619698 -3.204007 -3.927766 -1.664962 4.880711 11.209529 -11.585994 nan nan nan -0.553129 -3.726118 2.714613 3.832471 0.458336 0.236371 1.190087 -5.932099 -8.335062 nan nan nan -0.742526 1.724189 2.623323 2.233256 -4.409861 9.826953 0.779449 -0.667091 -8.464022 0.103887 -2.465800 -0.067664 2.961069 -1.704674 5.172640 -31.040402 -5.041502 3.942267 -53.670021 -6.008101 15.917154 1.736963 -20.992900 8.777979 -9.242145 -12.433448 6.497163 29.826874 9.092405 5.867436 54.212894 3.381292 15.001089 -9.575681 21.850211 -2.457384 9.186008 11.076231 1.813000 
4.391080 3.967044 91.077347 -124.745043 0.368477 87.908176 -0.329535 2.912224 5.563840 -3.209535 -3.908486 -1.598802 4.912048 11.184246 -11.565857 nan nan nan -0.552413 -3.738437 2.681461 3.816105 0.418748 0.270056 1.161173 -5.928453 -8.296576 nan nan nan -0.739072 1.716095 2.575198 2.219196 -4.433279 9.881880 0.760064 -0.646028 -8.437324 0.181445 -2.462886 -0.178894 2.920668 -1.766696 5.238960 -31.012829 -5.021885 3.935773 -53.747491 -6.083802 15.897724 1.713329 -20.932197 8.763443 -9.118300 -12.385242 6.474864 29.763538 9.124455 5.926124 54.361657 3.452419 14.994108 -9.639311 21.862598 -2.516408 9.048611 11.051625 1.652067 
4.382288 3.962349 91.075027 -124.719331 0.383698 87.935164 -0.310176 2.894440 5.491375 -3.226520 -3.846417 -1.534662 4.906476 11.180155 -11.584551 nan nan nan -0.556085 -3.758535 2.615626 3.863161 0.345164 0.353835 1.118358 -5.910858 -8.267893 nan nan nan -0.742668 1.693634 2.543489 2.217069 -4.448156 9.881688 0.771264 -0.637411 -8.420484 0.200855 -2.472794 -0.208155 2.915811 -1.795218 5.273939 -30.983507 -4.967540 3.905677 -53.877501 -6.140076 15.898444 1.761067 -20.827499 8.719788 -9.088285 -12.376862 6.448711 29.708418 9.104180 5.888137 54.497362 3.513881 15.009912 -9.696805 21.769440 -2.504303 9.047235 11.066225 1.541691 
4.360400 3.957628 91.071091 -124.668667 0.378341 87.953058 -0.321286 2.843422 5.470181 -3.236188 -3.850111 -1.557166 5.015271 11.134905 -11.601339 nan nan nan -0.589001 -3.761891 2.631645 3.900186 0.304533 0.286582 1.125544 -5.921342 -8.271050 nan nan nan -0.742794 1.696644 2.524865 2.203310 -4.450764 9.822251 0.795206 -0.691510 -8.387672 0.207033 -2.467998 -0.159363 2.930926 -1.732619 5.275646 -30.968438 -4.940981 3.918443 -53.992439 -6.162591 15.935421 1.851995 -20.737279 8.787635 -9.149926 -12.438421 6.487046 29.603649 9.087102 5.839042 54.678875 3.569192 15.048888 -9.754202 21.613667 -2.398674 9.153983 11.157103 1.466230 
4.352561 3.934885 91.071236 -124.619150 0.351737 87.990950 -0.379166 2.775348 5.419819 -3.221639 -3.906720 -1.613091 5.254887 11.154589 -11.575515 nan nan nan -0.611875 -3.739955 2.554797 3.869854 0.330121 0.313125 1.158254 -5.976340 -8.311707 nan nan nan -0.751730 1.704984 2.521203 2.194049 -4.441992 9.723799 0.789862 -0.727051 -8.344655 0.209651 -2.471152 -0.155606 2.944726 -1.691797 5.357599 -30.986319 -4.966233 3.924517 -54.030443 -6.174238 15.985264 1.909529 -20.651507 8.735876 -9.193540 -12.481365 6.462080 29.528564 9.079051 5.801147 54.832515 3.580897 15.124293 -9.826219 21.527936 -2.327883 9.139059 11.203488 1.406855 
4.358685 3.916164 91.070602 -124.596354 0.335561 88.020778 -0.400221 2.740742 5.329770 -3.249970 -3.915627 -1.559702 5.439813 11.180201 -11.566400 nan nan nan -0.612608 -3.730937 2.452438 3.829619 0.396341 0.426121 1.148327 -5.977645 -8.330340 nan nan nan -0.763153 1.725211 2.524586 2.183221 -4.425730 9.691964 0.775596 -0.722803 -8.316490 0.236395 -2.463420 -0.213871 2.963311 -1.654866 5.389356 -30.944212 -5.000393 3.904666 -54.093447 -6.212126 16.038721 1.932659 -20.596057 8.705705 -9.222396 -12.416530 6.378717 29.502064 9.020429 5.774204 54.913278 3.563958 15.153623 -9.887684 21.651612 -2.322918 9.144739 11.113910 1.306930 
4.348875 3.914602 91.074890 -124.593021 0.346104 87.998882 -0.368926 2.768364 5.352639 -3.292090 -3.931419 -1.547705 5.484671 11.168427 -11.570230 nan nan nan -0.597243 -3.744185 2.486472 3.816080 0.468120 0.420011 1.131981 -5.954903 -8.319442 nan nan nan -0.747409 1.730617 2.528349 2.171352 -4.413815 9.712321 0.756882 -0.689736 -8.281316 0.267952 -2.490432 -0.297129 2.988081 -1.677385 5.446421 -30.892728 -4.997980 3.909854 -54.162714 -6.269836 16.038714 1.954992 -20.604664 8.729038 -9.176728 -12.375690 6.383791 29.466907 8.941513 5.720592 54.970894 3.506474 15.137207 -9.930678 21.850630 -2.311994 9.209678 11.058541 1.302913 
4.315345 3.915307 91.080315 -124.555461 0.355493 87.952508 -0.360519 2.794839 5.430177 -3.289997 -3.971676 -1.541358 5.378840 11.128186 -11.588223 nan nan nan -0.601052 -3.760436 2.616695 3.823513 0.484128 0.321235 1.156956 -5.975088 -8.292634 nan nan nan -0.739274 1.724879 2.538439 2.167628 -4.415073 9.668462 0.762961 -0.702045 -8.203665 0.304988 -2.468156 -0.308887 2.970118 -1.697539 5.475604 -30.872798 -4.946401 3.901239 -54.195633 -6.304339 16.018571 1.900387 -20.623913 8.917352 -9.182253 -12.288299 6.486525 29.409279 8.855276 5.683465 55.041364 3.497149 15.105256 -9.953040 21.954738 -2.247294 9.186885 10.947745 1.328969 
